<?xml version="1.0" encoding="UTF-8"?>
<svg id="Vrstva_1" data-name="Vrstva 1" xmlns="http://www.w3.org/2000/svg" viewBox="0 0 499.53 81.69">
  <defs>
    <style>
      .cls-1 {
        fill: #1e61ac;
        stroke-width: 0px;
      }

      .cls-2 {
        fill: none;
        stroke: #1e61ac;
        stroke-miterlimit: 10;
        stroke-width: 16.74px;
      }
    </style>
  </defs>
  <g>
    <g>
      <path class="cls-1" d="M94.62,21.36h16.73v59.01h-16.73V21.36Z"/>
      <path class="cls-1" d="M127.1,21.36h16.73v8.37c3.85-4.95,8.92-9.47,17.28-9.47,12.77,0,20.04,8.26,20.04,21.91v38.2h-16.73v-32.92c0-7.93-3.63-12-10.13-12s-10.46,4.07-10.46,12v32.92h-16.73V21.36Z"/>
      <path class="cls-1" d="M195.24,59.56V21.36h16.73v32.92c0,7.93,3.63,12,10.13,12s10.46-4.07,10.46-12V21.36h16.73v59.01h-16.73v-8.37c-3.85,4.95-8.92,9.47-17.28,9.47-12.77,0-20.04-8.26-20.04-21.91Z"/>
      <path class="cls-1" d="M267.13,35.67h-6.94v-13.76h6.94v-3.74c0-6.39,1.54-11.12,4.73-14.31,3.08-3.08,5.94-3.38,11.88-3.38h13.55v13.69c-3.11,0-6.22-.17-8.68,0-4.06.28-4.97,1.24-4.97,5.54v2.31h13.54v13.65h-13.32v44.7h-16.73v-44.7Z"/>
      <path class="cls-1" d="M302.36,51.19v-.22c0-16.84,12-30.71,29.17-30.71,19.71,0,28.73,15.3,28.73,32.04,0,1.32-.11,2.75-.22,4.4h-41.06c1.65,7.6,6.94,11.56,14.42,11.56,5.61,0,9.58-1.76,14.31-6.06l9.58,8.48c-5.61,6.94-13.43,11.01-24.11,11.01-17.72,0-30.83-12.44-30.83-30.49ZM343.97,46.24c-.99-7.49-5.39-12.55-12.44-12.55s-11.45,4.95-12.77,12.55h25.21Z"/>
      <path class="cls-1" d="M369.84,51.19v-.22c0-16.84,12-30.71,29.17-30.71,19.71,0,28.73,15.3,28.73,32.04,0,1.32-.11,2.75-.22,4.4h-41.06c1.65,7.6,6.94,11.56,14.42,11.56,5.61,0,9.58-1.76,14.31-6.06l9.58,8.48c-5.61,6.94-13.43,11.01-24.11,11.01-17.72,0-30.83-12.44-30.83-30.49ZM411.46,46.24c-.99-7.49-5.39-12.55-12.44-12.55s-11.45,4.95-12.77,12.55h25.21Z"/>
      <path class="cls-1" d="M437.55,50.97v-.22c0-19.71,12.88-30.49,26.86-30.49,8.92,0,14.42,4.07,18.38,8.81V0h16.73v80.36h-16.73v-8.48c-4.07,5.61-9.58,9.58-18.38,9.58-13.76,0-26.86-10.79-26.86-30.5ZM483.01,50.97v-.22c0-9.8-6.49-16.29-14.31-16.29s-14.42,6.39-14.42,16.29v.22c0,9.8,6.6,16.29,14.42,16.29s14.31-6.49,14.31-16.29Z"/>
    </g>
    <g>
      <path class="cls-2" d="M0,40.93c30.71,0,38.43,21.57,38.43,39.49"/>
      <path class="cls-2" d="M0,9.41c24.48,0,69.94,5.15,69.94,70.96"/>
      <circle class="cls-1" cx="8.88" cy="71.48" r="8.88"/>
    </g>
  </g>
  <circle class="cls-1" cx="102.99" cy="9.41" r="8.88"/>
</svg>